:SAMPLES-PER-SECOND 30
:FULLY-SPECIFIED
:DEGREES
135
root  5.67335 39.04 -7.02477 -8.93046 77.145 -4.9752
RightUpLeg  -16.8054 -22.4726 4.29669
RightLeg  23.0376 -5.75248 0.607366
RightFoot  -3.10272 0.669418 -9.55345
RightToes  0.00048216 0.542163 -0.142577
Spine  18.4872 -2.69861 4.39521
Spine1  15.3331 -3.05517 4.22512
HEad  -0.678344 4.34978 -7.94405
LeftShoulder1  10.1069 -17.6225 -41.4789
LeftArm  2.19627 -40.0077 -40.5901
LeftForeArm  0.435567 -27.3801 -5.8774
LeftHand  -0.25398 0.0180481 5.50724
RightShoulder  6.7378 12.5892 35.8798
RightArm  -14.3569 0.0485318 29.622
RightForeArm  -14.1279 72.9555 45.4291
RightHand  -3.80473 8.8828 -30.6523
LeftUpLeg  -10.7508 10.3887 4.04464
LeftLeg  60.7298 3.85589 7.97866
LeftFoot  9.47218 0.430555 -2.61271
LeftToes  1.06246e-005 4.65855e-005 -8.185e-006
136
root  6.54045 39.1711 -6.56268 -8.57395 77.686 -4.60417
RightUpLeg  -15.0232 -21.9776 3.79243
RightLeg  23.2717 -6.60825 0.294787
RightFoot  -5.05535 0.474598 -9.22675
RightToes  0.00048216 0.542163 -0.142577
Spine  18.8464 -2.42469 4.44599
Spine1  15.618 -2.56059 3.68332
HEad  -0.432737 3.68696 -7.57013
LeftShoulder1  10.1131 -17.7053 -41.3302
LeftArm  1.57705 -40.7655 -40.1581
LeftForeArm  0.116996 -26.473 -5.68204
LeftHand  -0.25398 0.0180481 5.50724
RightShoulder  6.81163 12.6592 36.1485
RightArm  -13.9333 1.89317 29.731
RightForeArm  -18.3808 71.5609 40.9883
RightHand  -3.44548 7.89779 -29.8517
LeftUpLeg  -15.0374 7.46542 3.59687
LeftLeg  62.8604 3.1668 7.32223
LeftFoot  7.0834 0.238303 -1.75459
LeftToes  1.06246e-005 4.65855e-005 -8.185e-006
137
root  7.42638 39.3181 -6.09654 -7.37678 78.2266 -3.633
RightUpLeg  -13.0824 -20.2843 2.92899
RightLeg  22.8471 -8.80035 0.342896
RightFoot  -6.63231 0.310373 -8.61487
RightToes  0.00048216 0.542163 -0.142577
Spine  18.8986 -2.11388 4.20486
Spine1  15.5493 -2.21934 3.3973
HEad  0.162964 3.27678 -7.48493
LeftShoulder1  10.0741 -17.6645 -41.2441
LeftArm  1.17117 -41.3552 -39.711
LeftForeArm  0.0313302 -25.7358 -5.51707
LeftHand  -0.25398 0.0180481 5.50724
RightShoulder  6.91468 12.7997 36.4101
RightArm  -13.4833 3.686 29.765
RightForeArm  -22.8293 69.6923 36.2868
RightHand  -3.05578 6.90207 -28.6779
LeftUpLeg  -18.5922 4.76568 3.11944
LeftLeg  61.562 2.70014 6.00164
LeftFoot  4.40041 0.223353 -1.80151
LeftToes  1.06246e-005 4.65855e-005 -8.185e-006
138
root  8.32625 39.474 -5.63815 -6.67096 78.4651 -3.29321
RightUpLeg  -11.0543 -17.8904 2.28387
RightLeg  21.8352 -11.4925 0.654365
RightFoot  -7.68942 0.206121 -8.08362
RightToes  0.00048216 0.542163 -0.142577
Spine  18.725 -1.64492 4.14467
Spine1  15.3183 -1.74079 3.08362
HEad  0.668014 2.90206 -7.64485
LeftShoulder1  10.0473 -17.6063 -41.2484
LeftArm  1.34108 -41.9487 -39.4185
LeftForeArm  0.078736 -25.2719 -5.40935
LeftHand  -0.25398 0.0180481 5.50724
RightShoulder  6.98376 12.9121 36.5365
RightArm  -13.2174 5.23572 29.6464
RightForeArm  -26.2418 67.736 32.401
RightHand  -2.71954 6.12244 -27.3112
LeftUpLeg  -21.2727 2.84464 2.79494
LeftLeg  57.3491 2.68824 5.02302
LeftFoot  2.44964 0.0955179 -0.902301
LeftToes  1.06246e-005 4.65855e-005 -8.185e-006
139
root  9.22902 39.6323 -5.18399 -6.13512 78.5013 -3.0424
RightUpLeg  -8.84312 -15.7986 1.9365
RightLeg  20.4464 -13.59 1.02154
RightFoot  -8.66732 0.124168 -7.80714
RightToes  0.00048216 0.542163 -0.142577
Spine  18.4575 -1.03025 3.93452
Spine1  15.2056 -1.17128 2.78736
HEad  0.893071 2.60602 -7.83498
LeftShoulder1  10.0426 -17.6429 -41.1502
LeftArm  1.592 -42.5028 -39.2763
LeftForeArm  0.190278 -25.0776 -5.35981
LeftHand  -0.25398 0.0180481 5.50724
RightShoulder  7.0236 12.9844 36.5897
RightArm  -13.2153 6.78297 29.4465
RightForeArm  -28.6837 65.7698 29.2293
RightHand  -2.36683 5.27401 -25.7154
LeftUpLeg  -22.7289 2.27548 2.46945
LeftLeg  50.41 2.95602 4.26965
LeftFoot  0.92748 -0.021373 0.133835
LeftToes  1.06246e-005 4.65855e-005 -8.185e-006
140
root  10.1435 39.7225 -4.73977 -6.26524 78.7313 -3.45827
RightUpLeg  -6.77406 -14.1416 1.85146
RightLeg  19.3267 -15.2717 1.37048
RightFoot  -9.94231 0.0239371 -7.39813
RightToes  0.00048216 0.542163 -0.142577
Spine  18.0463 -0.547404 3.65441
Spine1  15.1869 -0.822195 2.69936
HEad  1.00712 2.54705 -7.76366
LeftShoulder1  9.99557 -17.6779 -40.8669
LeftArm  1.37079 -42.8235 -39.1149
LeftForeArm  0.428522 -25.1611 -5.36639
LeftHand  -0.25398 0.0180481 5.50724
RightShoulder  7.09131 13.0954 36.7085
RightArm  -13.2911 8.47379 29.2953
RightForeArm  -30.5437 63.6883 26.4364
RightHand  -1.94555 4.08745 -23.8295
LeftUpLeg  -23.0509 3.31616 2.04333
LeftLeg  41.0659 2.55482 2.78924
LeftFoot  0.0515243 0.0298539 -0.306325
LeftToes  1.06246e-005 4.65855e-005 -8.185e-006
141
root  11.0836 39.765 -4.31254 -7.20754 79.1748 -4.83331
RightUpLeg  -4.89719 -12.6815 2.00419
RightLeg  18.2313 -16.914 1.78871
RightFoot  -11.1075 -0.0613307 -6.78034
RightToes  0.00048216 0.542163 -0.142577
Spine  17.4234 -0.282552 3.54589
Spine1  15.1362 -0.649295 2.50493
HEad  1.26007 2.57219 -7.43551
LeftShoulder1  9.90064 -17.5985 -40.6114
LeftArm  0.856792 -42.8881 -38.9151
LeftForeArm  0.799325 -25.4704 -5.41717
LeftHand  -0.25398 0.0180481 5.50724
RightShoulder  7.18508 13.2481 36.8733
RightArm  -13.2365 10.0461 29.1666
RightForeArm  -31.8405 61.6976 24.1728
RightHand  -1.52463 2.72201 -21.8541
LeftUpLeg  -22.5577 6.32522 1.10222
LeftLeg  29.923 0.945192 1.04665
LeftFoot  0.293678 0.185953 -1.83278
LeftToes  1.06246e-005 4.65855e-005 -8.185e-006
142
root  12.0357 39.8208 -3.90359 -8.0383 79.5795 -6.10948
RightUpLeg  -2.87851 -11.5529 2.26422
RightLeg  16.674 -18.3334 2.24165
RightFoot  -11.881 -0.110848 -6.43496
RightToes  0.00048216 0.542163 -0.142577
Spine  16.7545 -0.0774044 3.44979
Spine1  15.2249 -0.361008 1.94652
HEad  1.7857 2.37698 -7.08567
LeftShoulder1  9.83705 -17.4816 -40.5731
LeftArm  0.521238 -42.8134 -38.7474
LeftForeArm  1.11375 -25.8963 -5.49769
LeftHand  -0.25398 0.0180481 5.50724
RightShoulder  7.25614 13.3642 36.9948
RightArm  -13.0747 11.2962 28.9151
RightForeArm  -32.5658 60.0814 22.5679
RightHand  -1.25276 1.8058 -20.2679
LeftUpLeg  -21.36 10.7531 -0.418149
LeftLeg  17.8839 0.128633 -0.104835
LeftFoot  1.48162 0.35482 -3.23678
LeftToes  1.06246e-005 4.65855e-005 -8.185e-006
143
root  13.0243 39.8169 -3.50703 -9.31798 79.9888 -7.57291
RightUpLeg  -0.711774 -10.9981 2.63327
RightLeg  15.5386 -19.3265 2.40474
RightFoot  -12.9711 -0.177152 -6.29917
RightToes  0.00048216 0.542163 -0.142577
Spine  16.1621 0.120814 3.3655
Spine1  15.5818 -0.00925661 1.46078
HEad  2.62246 1.92843 -6.68878
LeftShoulder1  9.82476 -17.4417 -40.6025
LeftArm  0.521778 -42.6674 -38.6224
LeftForeArm  1.13075 -26.2804 -5.58476
LeftHand  -0.25398 0.0180481 5.50724
RightShoulder  7.31059 13.4419 37.1144
RightArm  -13.0133 12.384 28.5004
RightForeArm  -32.9221 58.7226 21.3472
RightHand  -1.18606 1.76004 -19.3273
LeftUpLeg  -19.1859 10.7193 0.0803861
LeftLeg  6.55097 6.69801 -2.62321
LeftFoot  3.07827 0.545845 -4.45752
LeftToes  1.06246e-005 4.65855e-005 -8.185e-006
144
root  14.0914 39.6806 -3.11323 -12.5431 80.6331 -10.6249
RightUpLeg  1.4852 -11.2246 3.10364
RightLeg  15.5567 -19.7535 2.2208
RightFoot  -14.7464 -0.27171 -5.81593
RightToes  0.00048216 0.542163 -0.142577
Spine  15.569 0.251664 3.42624
Spine1  15.9271 0.128698 1.40383
HEad  3.79401 1.37506 -5.91044
LeftShoulder1  9.77805 -17.4258 -40.4253
LeftArm  0.832637 -42.4404 -38.6654
LeftForeArm  0.862518 -26.4574 -5.63955
LeftHand  -0.25398 0.0180481 5.50724
RightShoulder  7.39043 13.5526 37.296
RightArm  -13.198 13.3796 28.0318
RightForeArm  -33.0306 57.3807 20.2333
RightHand  -1.17993 2.02927 -18.5578
LeftUpLeg  -16.5466 4.54454 2.94734
LeftLeg  -1.81341 19.469 -7.21639
LeftFoot  4.72872 0.7974 -5.83991
LeftToes  1.06246e-005 4.65855e-005 -8.185e-006
145
root  15.2298 39.4613 -2.71265 -16.3373 81.5417 -14.0693
RightUpLeg  3.63344 -12.6841 3.26741
RightLeg  16.428 -19.1946 1.83685
RightFoot  -16.7337 -0.350779 -5.03056
RightToes  0.00048216 0.542163 -0.142577
Spine  15.0723 0.290032 3.25074
Spine1  16.1315 0.127121 1.44421
HEad  5.28714 0.696097 -4.63084
LeftShoulder1  9.65324 -17.3226 -40.0784
LeftArm  1.42053 -42.0919 -39.0625
LeftForeArm  0.658085 -26.4826 -5.65603
LeftHand  -0.25398 0.0180481 5.50724
RightShoulder  7.47026 13.6789 37.4366
RightArm  -13.5323 14.018 27.6274
RightForeArm  -32.788 56.1293 19.259
RightHand  -1.06111 1.77198 -17.29
LeftUpLeg  -15.5038 4.76763 2.65255
LeftLeg  -3.32813 22.3188 -8.5844
LeftFoot  6.15341 0.939081 -6.36534
LeftToes  1.06246e-005 4.65855e-005 -8.185e-006
146
root  16.3841 39.27 -2.31169 -16.1399 82.4558 -13.4574
RightUpLeg  5.8041 -16.3872 2.41092
RightLeg  17.6133 -16.3679 1.0814
RightFoot  -18.4405 -0.387689 -4.24545
RightToes  0.00048216 0.542163 -0.142577
Spine  14.834 0.416142 2.2245
Spine1  16.4133 0.333605 1.20655
HEad  6.93626 -0.26687 -3.16949
LeftShoulder1  9.54653 -17.16 -39.9368
LeftArm  2.07702 -41.6146 -39.6167
LeftForeArm  0.851199 -26.7281 -5.70286
LeftHand  -0.25398 0.0180481 5.50724
RightShoulder  7.48202 13.7156 37.4126
RightArm  -13.7641 14.2422 27.3268
RightForeArm  -32.1968 55.041 18.4525
RightHand  -0.84516 0.982222 -15.4667
LeftUpLeg  -15.4042 6.19342 1.23617
LeftLeg  -0.115138 20.8153 -7.54518
LeftFoot  7.68434 0.415978 -2.78959
LeftToes  1.06246e-005 4.65855e-005 -8.185e-006
147
root  17.5276 39.0969 -1.93049 -10.2111 83.0277 -6.91865
RightUpLeg  7.66753 -23.048 0.263138
RightLeg  20.0953 -9.83421 -0.592694
RightFoot  -19.9721 -0.315273 -2.44896
RightToes  0.00048216 0.542163 -0.142577
Spine  14.9218 0.81975 0.674016
Spine1  16.8205 0.848905 0.741984
HEad  8.44161 -1.51928 -1.93343
LeftShoulder1  9.58647 -17.0812 -40.288
LeftArm  2.45082 -41.0777 -39.8297
LeftForeArm  1.39413 -27.4945 -5.85379
LeftHand  -0.25398 0.0180481 5.50724
RightShoulder  7.43205 13.6474 37.2984
RightArm  -13.8052 14.5027 27.0713
RightForeArm  -31.5679 53.7874 17.5866
RightHand  -0.667465 0.350715 -13.5524
LeftUpLeg  -16.1138 10.6896 -1.70229
LeftLeg  5.43545 15.1186 -4.85099
LeftFoot  8.2103 -0.744681 4.06928
LeftToes  1.06246e-005 4.65855e-005 -8.185e-006
148
root  18.5998 38.9824 -1.60026 -1.15056 83.2764 2.75385
RightUpLeg  7.9207 -27.7741 -2.07411
RightLeg  24.9291 -4.06215 -2.64611
RightFoot  -20.0466 -0.023713 1.5692
RightToes  0.00048216 0.542163 -0.142577
Spine  15.5194 1.28235 -0.699547
Spine1  17.1812 1.4873 -0.0123291
HEad  9.61619 -2.81517 -1.14671
LeftShoulder1  9.77336 -17.1647 -40.9623
LeftArm  2.31523 -40.5 -39.632
LeftForeArm  2.05531 -28.6443 -6.09249
LeftHand  -0.25398 0.0180481 5.50724
RightShoulder  7.39321 13.5967 37.2031
RightArm  -13.8339 15.213 26.7489
RightForeArm  -31.1451 51.9951 16.4666
RightHand  -0.577544 0.296721 -11.8481
LeftUpLeg  -17.2236 17.0419 -5.31293
LeftLeg  10.7285 8.20891 -1.84534
LeftFoot  7.20539 -1.51913 9.01596
LeftToes  1.06246e-005 4.65855e-005 -8.185e-006
